<svg width="35" height="36" viewBox="0 0 35 36" fill="none" xmlns="http://www.w3.org/2000/svg">
<path d="M2.91602 9.24996C2.91602 6.5001 2.91602 5.12517 3.77029 4.2709C4.62456 3.41663 5.99949 3.41663 8.74935 3.41663C11.4992 3.41663 12.8741 3.41663 13.7284 4.2709C14.5827 5.12517 14.5827 6.5001 14.5827 9.24996V12.1666C14.5827 14.9165 14.5827 16.2914 13.7284 17.1457C12.8741 18 11.4992 18 8.74935 18C5.99949 18 4.62456 18 3.77029 17.1457C2.91602 16.2914 2.91602 14.9165 2.91602 12.1666V9.24996Z" stroke="white" stroke-width="2"/>
<path d="M2.91602 28.2084C2.91602 26.8494 2.91602 26.1699 3.13803 25.6338C3.43406 24.9192 4.00186 24.3514 4.71652 24.0553C5.25253 23.8334 5.93202 23.8334 7.29102 23.8334H10.2077C11.5667 23.8334 12.2462 23.8334 12.7822 24.0553C13.4968 24.3514 14.0646 24.9192 14.3607 25.6338C14.5827 26.1699 14.5827 26.8494 14.5827 28.2084C14.5827 29.5674 14.5827 30.2468 14.3607 30.7829C14.0646 31.4975 13.4968 32.0654 12.7822 32.3614C12.2462 32.5834 11.5667 32.5834 10.2077 32.5834H7.29102C5.93202 32.5834 5.25253 32.5834 4.71652 32.3614C4.00186 32.0654 3.43406 31.4975 3.13803 30.7829C2.91602 30.2468 2.91602 29.5674 2.91602 28.2084Z" stroke="white" stroke-width="2"/>
<path d="M20.416 23.8333C20.416 21.0835 20.416 19.7086 21.2703 18.8543C22.1246 18 23.4995 18 26.2493 18C28.9992 18 30.3741 18 31.2284 18.8543C32.0827 19.7086 32.0827 21.0835 32.0827 23.8333V26.75C32.0827 29.4998 32.0827 30.8747 31.2284 31.729C30.3741 32.5833 28.9992 32.5833 26.2493 32.5833C23.4995 32.5833 22.1246 32.5833 21.2703 31.729C20.416 30.8747 20.416 29.4998 20.416 26.75V23.8333Z" stroke="white" stroke-width="2"/>
<path d="M20.416 7.79163C20.416 6.43263 20.416 5.75314 20.638 5.21713C20.934 4.50247 21.5019 3.93467 22.2165 3.63864C22.7526 3.41663 23.432 3.41663 24.791 3.41663H27.7077C29.0667 3.41663 29.7461 3.41663 30.2822 3.63864C30.9968 3.93467 31.5647 4.50247 31.8607 5.21713C32.0827 5.75314 32.0827 6.43263 32.0827 7.79163C32.0827 9.15062 32.0827 9.83011 31.8607 10.3661C31.5647 11.0808 30.9968 11.6486 30.2822 11.9446C29.7461 12.1666 29.0667 12.1666 27.7077 12.1666H24.791C23.432 12.1666 22.7526 12.1666 22.2165 11.9446C21.5019 11.6486 20.934 11.0808 20.638 10.3661C20.416 9.83011 20.416 9.15062 20.416 7.79163Z" stroke="white" stroke-width="2"/>
</svg>
