<svg width="36" height="36" viewBox="0 0 36 36" fill="none" xmlns="http://www.w3.org/2000/svg">
<path d="M19.7069 3.41663H9.25065C7.64648 3.41663 6.33398 4.72913 6.33398 6.33329V29.6666C6.33398 31.2708 7.64648 32.5833 9.25065 32.5833H26.7507C28.3548 32.5833 29.6673 31.2708 29.6673 29.6666V13.377C29.6673 12.6041 29.3611 11.8604 28.8069 11.3208L21.7632 4.27704C21.2236 3.72288 20.4798 3.41663 19.7069 3.41663ZM23.834 22.375C23.834 25.7875 20.9027 28.5145 17.4319 28.1791C14.3986 27.8875 12.1673 25.175 12.1673 22.127V14.5583C12.1673 12.6479 13.5382 10.9125 15.434 10.7229C17.6215 10.5041 19.459 12.2104 19.459 14.3541V20.9166C19.459 21.7187 18.8027 22.375 18.0007 22.375C17.1986 22.375 16.5423 21.7187 16.5423 20.9166V14.3541C16.5423 13.9458 16.2215 13.625 15.8132 13.625C15.4048 13.625 15.084 13.9458 15.084 14.3541V22.2145C15.084 23.6729 16.0757 25.0145 17.5048 25.2479C19.3423 25.5541 20.9173 24.1395 20.9173 22.375V18C20.9173 17.1979 21.5736 16.5416 22.3757 16.5416C23.1777 16.5416 23.834 17.1979 23.834 18V22.375ZM20.9173 10.7083V6.33329L26.7507 12.1666H22.3757C21.5736 12.1666 20.9173 11.5104 20.9173 10.7083Z" fill="#A855F7"/>
</svg>
