<svg width="36" height="36" viewBox="0 0 36 36" fill="none" xmlns="http://www.w3.org/2000/svg">
<path d="M29.666 3.41663H6.33268C4.72852 3.41663 3.4306 4.72913 3.4306 6.33329L3.41602 32.5833L9.24935 26.75H29.666C31.2702 26.75 32.5827 25.4375 32.5827 23.8333V6.33329C32.5827 4.72913 31.2702 3.41663 29.666 3.41663ZM25.291 20.9166H10.7077C9.9056 20.9166 9.24935 20.2604 9.24935 19.4583C9.24935 18.6562 9.9056 18 10.7077 18H25.291C26.0931 18 26.7493 18.6562 26.7493 19.4583C26.7493 20.2604 26.0931 20.9166 25.291 20.9166ZM25.291 16.5416H10.7077C9.9056 16.5416 9.24935 15.8854 9.24935 15.0833C9.24935 14.2812 9.9056 13.625 10.7077 13.625H25.291C26.0931 13.625 26.7493 14.2812 26.7493 15.0833C26.7493 15.8854 26.0931 16.5416 25.291 16.5416ZM25.291 12.1666H10.7077C9.9056 12.1666 9.24935 11.5104 9.24935 10.7083C9.24935 9.90621 9.9056 9.24996 10.7077 9.24996H25.291C26.0931 9.24996 26.7493 9.90621 26.7493 10.7083C26.7493 11.5104 26.0931 12.1666 25.291 12.1666Z" fill="#F59E0B"/>
</svg>
