<svg width="35" height="36" viewBox="0 0 35 36" fill="none" xmlns="http://www.w3.org/2000/svg">
<path d="M22.6048 18C22.6048 20.819 20.3196 23.1042 17.5007 23.1042C14.6817 23.1042 12.3965 20.819 12.3965 18C12.3965 15.1811 14.6817 12.8959 17.5007 12.8959C20.3196 12.8959 22.6048 15.1811 22.6048 18Z" stroke="black" stroke-width="2"/>
<path d="M30.319 13.8467C31.4948 15.8735 32.0827 16.8867 32.0827 18C32.0827 19.1133 31.4948 20.1265 30.319 22.1533L27.5136 26.9889C26.3424 29.0075 25.7569 30.017 24.7938 30.571C23.8308 31.125 22.6621 31.125 20.3246 31.125H14.6741C12.3366 31.125 11.1678 31.125 10.2049 30.571C9.24189 30.017 8.65629 29.0075 7.48513 26.9889L4.67975 22.1533C3.50393 20.1265 2.91602 19.1133 2.91602 18C2.91602 16.8867 3.50393 15.8735 4.67975 13.8467L7.48513 9.01114C8.65629 6.99244 9.24189 5.9831 10.2049 5.42905C11.1678 4.875 12.3366 4.875 14.6741 4.875H20.3246C22.6621 4.875 23.8308 4.875 24.7938 5.42905C25.7569 5.9831 26.3424 6.99246 27.5136 9.01115L30.319 13.8467Z" stroke="black" stroke-width="2"/>
</svg>
