<svg width="35" height="36" viewBox="0 0 35 36" fill="none" xmlns="http://www.w3.org/2000/svg">
<path d="M21.875 7.79163V10.7083M21.875 16.5416V19.4583M21.875 25.2916V28.2083M7.29167 7.79163H27.7083C28.4819 7.79163 29.2237 8.09892 29.7707 8.6459C30.3177 9.19288 30.625 9.93474 30.625 10.7083V15.0833C29.8515 15.0833 29.1096 15.3906 28.5626 15.9376C28.0156 16.4845 27.7083 17.2264 27.7083 18C27.7083 18.7735 28.0156 19.5154 28.5626 20.0624C29.1096 20.6093 29.8515 20.9166 30.625 20.9166V25.2916C30.625 26.0652 30.3177 26.807 29.7707 27.354C29.2237 27.901 28.4819 28.2083 27.7083 28.2083H7.29167C6.51812 28.2083 5.77625 27.901 5.22927 27.354C4.68229 26.807 4.375 26.0652 4.375 25.2916V20.9166C5.14855 20.9166 5.89041 20.6093 6.43739 20.0624C6.98438 19.5154 7.29167 18.7735 7.29167 18C7.29167 17.2264 6.98438 16.4845 6.43739 15.9376C5.89041 15.3906 5.14855 15.0833 4.375 15.0833V10.7083C4.375 9.93474 4.68229 9.19288 5.22927 8.6459C5.77625 8.09892 6.51812 7.79163 7.29167 7.79163Z" stroke="black" stroke-width="2" stroke-linecap="round" stroke-linejoin="round"/>
</svg>
