<svg width="35" height="36" viewBox="0 0 35 36" fill="none" xmlns="http://www.w3.org/2000/svg">
<path d="M17.4993 13.6249V19.4583M17.4993 23.8333H17.5139M15.1113 5.73674L3.29007 25.4738C3.04638 25.8958 2.91742 26.3743 2.91603 26.8616C2.91463 27.349 3.04085 27.8282 3.28212 28.2516C3.52339 28.675 3.87131 29.0278 4.29128 29.2751C4.71124 29.5223 5.18861 29.6552 5.67591 29.6607H29.3213C29.8084 29.6551 30.2855 29.5221 30.7053 29.275C31.1251 29.0278 31.4728 28.6751 31.7141 28.2519C31.9553 27.8287 32.0816 27.3498 32.0804 26.8627C32.0792 26.3756 31.9505 25.8973 31.7072 25.4753L19.8859 5.73529C19.6372 5.32477 19.2868 4.98533 18.8686 4.74974C18.4505 4.51415 17.9786 4.39038 17.4986 4.39038C17.0186 4.39038 16.5468 4.51415 16.1286 4.74974C15.7104 4.98533 15.36 5.32477 15.1113 5.73529V5.73674Z" stroke="black" stroke-width="2" stroke-linecap="round" stroke-linejoin="round"/>
</svg>
