<svg width="36" height="35" viewBox="0 0 36 35" fill="none" xmlns="http://www.w3.org/2000/svg">
<path d="M17.9995 2.43542C19.3922 2.43542 20.6901 3.11647 21.4849 4.25397L21.638 4.4873L33.471 24.2448C33.8306 24.8676 34.0262 25.5715 34.0396 26.2906C34.053 27.0096 33.8837 27.7203 33.5475 28.3561C33.2113 28.9919 32.7193 29.5319 32.1175 29.9257C31.5157 30.3195 30.8238 30.5541 30.1066 30.6075L29.8222 30.6192H6.16075C5.44282 30.6111 4.73864 30.4213 4.11394 30.0674C3.48924 29.7135 2.96438 29.2071 2.58837 28.5954C2.21236 27.9838 1.99744 27.2868 1.96368 26.5697C1.92993 25.8525 2.07843 25.1384 2.39533 24.4942L2.53971 24.2244L14.3668 4.48147C14.7455 3.85703 15.2787 3.34071 15.915 2.98233C16.5513 2.62394 17.2692 2.43559 17.9995 2.43542ZM18.0141 21.875L17.8289 21.8852C17.4744 21.9274 17.1478 22.0981 16.9107 22.365C16.6737 22.6318 16.5428 22.9764 16.5428 23.3333C16.5428 23.6903 16.6737 24.0348 16.9107 24.3017C17.1478 24.5686 17.4744 24.7393 17.8289 24.7815L17.9995 24.7917L18.1847 24.7815C18.5392 24.7393 18.8658 24.5686 19.1029 24.3017C19.3399 24.0348 19.4708 23.6903 19.4708 23.3333C19.4708 22.9764 19.3399 22.6318 19.1029 22.365C18.8658 22.0981 18.5392 21.9274 18.1847 21.8852L18.0141 21.875ZM17.9995 11.6667C17.6423 11.6667 17.2975 11.7979 17.0306 12.0352C16.7637 12.2726 16.5932 12.5996 16.5514 12.9544L16.5412 13.125V18.9583L16.5514 19.129C16.5935 19.4834 16.7642 19.8101 17.0311 20.0471C17.298 20.2841 17.6426 20.4151 17.9995 20.4151C18.3564 20.4151 18.701 20.2841 18.9679 20.0471C19.2348 19.8101 19.4055 19.4834 19.4476 19.129L19.4578 18.9583V13.125L19.4476 12.9544C19.4058 12.5996 19.2353 12.2726 18.9684 12.0352C18.7014 11.7979 18.3567 11.6667 17.9995 11.6667Z" fill="#EC3237"/>
</svg>
