<svg width="35" height="36" viewBox="0 0 35 36" fill="none" xmlns="http://www.w3.org/2000/svg">
<path d="M5.83268 18C5.83268 21.0942 7.06185 24.0616 9.24977 26.2495C11.4377 28.4375 14.4052 29.6666 17.4993 29.6666M5.83268 18C5.83268 14.9058 7.06185 11.9383 9.24977 9.75038C11.4377 7.56246 14.4052 6.33329 17.4993 6.33329M5.83268 18H2.91602M17.4993 29.6666C20.5935 29.6666 23.561 28.4375 25.7489 26.2495C27.9369 24.0616 29.166 21.0942 29.166 18M17.4993 29.6666V32.5833M29.166 18C29.166 14.9058 27.9369 11.9383 25.7489 9.75038C23.561 7.56246 20.5935 6.33329 17.4993 6.33329M29.166 18H32.0827M17.4993 6.33329V3.41663M13.1243 18C13.1243 19.1603 13.5853 20.2731 14.4058 21.0936C15.2262 21.914 16.339 22.375 17.4993 22.375C18.6597 22.375 19.7725 21.914 20.5929 21.0936C21.4134 20.2731 21.8743 19.1603 21.8743 18C21.8743 16.8396 21.4134 15.7268 20.5929 14.9064C19.7725 14.0859 18.6597 13.625 17.4993 13.625C16.339 13.625 15.2262 14.0859 14.4058 14.9064C13.5853 15.7268 13.1243 16.8396 13.1243 18Z" stroke="black" stroke-width="2" stroke-linecap="round" stroke-linejoin="round"/>
</svg>
