<svg width="35" height="36" viewBox="0 0 35 36" fill="none" xmlns="http://www.w3.org/2000/svg">
<path d="M17.5 10.7083V18L21.875 22.375M4.375 18C4.375 19.7236 4.71449 21.4303 5.37408 23.0227C6.03367 24.6151 7.00045 26.062 8.21922 27.2808C9.43799 28.4995 10.8849 29.4663 12.4773 30.1259C14.0697 30.7855 15.7764 31.125 17.5 31.125C19.2236 31.125 20.9303 30.7855 22.5227 30.1259C24.1151 29.4663 25.562 28.4995 26.7808 27.2808C27.9995 26.062 28.9663 24.6151 29.6259 23.0227C30.2855 21.4303 30.625 19.7236 30.625 18C30.625 14.519 29.2422 11.1806 26.7808 8.71922C24.3194 6.25781 20.981 4.875 17.5 4.875C14.019 4.875 10.6806 6.25781 8.21922 8.71922C5.75781 11.1806 4.375 14.519 4.375 18Z" stroke="black" stroke-width="2" stroke-linecap="round" stroke-linejoin="round"/>
</svg>
