<svg width="35" height="36" viewBox="0 0 35 36" fill="none" xmlns="http://www.w3.org/2000/svg">
<path d="M13.1243 7.79167H10.2077C9.43413 7.79167 8.69227 8.09896 8.14529 8.64594C7.59831 9.19292 7.29102 9.93479 7.29102 10.7083V28.2083C7.29102 28.9819 7.59831 29.7237 8.14529 30.2707C8.69227 30.8177 9.43413 31.125 10.2077 31.125H24.791C25.5646 31.125 26.3064 30.8177 26.8534 30.2707C27.4004 29.7237 27.7077 28.9819 27.7077 28.2083V10.7083C27.7077 9.93479 27.4004 9.19292 26.8534 8.64594C26.3064 8.09896 25.5646 7.79167 24.791 7.79167H21.8743M13.1243 7.79167C13.1243 7.01812 13.4316 6.27625 13.9786 5.72927C14.5256 5.18229 15.2675 4.875 16.041 4.875H18.9577C19.7312 4.875 20.4731 5.18229 21.0201 5.72927C21.5671 6.27625 21.8743 7.01812 21.8743 7.79167M13.1243 7.79167C13.1243 8.56521 13.4316 9.30708 13.9786 9.85406C14.5256 10.401 15.2675 10.7083 16.041 10.7083H18.9577C19.7312 10.7083 20.4731 10.401 21.0201 9.85406C21.5671 9.30708 21.8743 8.56521 21.8743 7.79167M13.1243 25.2917V18M17.4993 25.2917V23.8333M21.8743 25.2917V20.9167" stroke="black" stroke-width="2" stroke-linecap="round" stroke-linejoin="round"/>
</svg>
