<svg width="35" height="36" viewBox="0 0 35 36" fill="none" xmlns="http://www.w3.org/2000/svg">
<path d="M27.1478 29.6666H27.8627C29.5395 29.6666 30.8733 28.9026 32.0709 27.8344C35.1131 25.1204 27.9616 22.375 25.5202 22.375M22.6035 7.89192C22.9347 7.82623 23.2786 7.79163 23.6313 7.79163C26.2854 7.79163 28.4368 9.75039 28.4368 12.1666C28.4368 14.5829 26.2854 16.5416 23.6313 16.5416C23.2786 16.5416 22.9347 16.5071 22.6035 16.4413" stroke="black" stroke-width="2" stroke-linecap="round"/>
<path d="M6.53525 23.9955C4.81592 24.9169 0.307911 26.7983 3.05358 29.1525C4.39482 30.3025 5.88862 31.125 7.76668 31.125H18.4834C20.3614 31.125 21.8552 30.3025 23.1964 29.1525C25.9421 26.7983 21.4341 24.9169 19.7148 23.9955C15.6829 21.8348 10.5671 21.8348 6.53525 23.9955Z" stroke="black" stroke-width="2"/>
<path d="M18.9577 11.4375C18.9577 14.6591 16.346 17.2708 13.1243 17.2708C9.90269 17.2708 7.29102 14.6591 7.29102 11.4375C7.29102 8.2158 9.90269 5.60413 13.1243 5.60413C16.346 5.60413 18.9577 8.2158 18.9577 11.4375Z" stroke="black" stroke-width="2"/>
</svg>
